<svg xmlns="http://www.w3.org/2000/svg" version="1.1" xmlns:xlink="http://www.w3.org/1999/xlink" xmlns:svgjs="http://svgjs.dev/svgjs" width="1000" height="1000" viewBox="0 0 1000 1000"><rect width="1000" height="1000" fill="#ffffff"></rect><g transform="matrix(0.7,0,0,0.7,149.57575757575756,390.8297947543858)"><svg viewBox="0 0 396 124" data-background-color="#ffffff" preserveAspectRatio="xMidYMid meet" height="313" width="1000" xmlns="http://www.w3.org/2000/svg" xmlns:xlink="http://www.w3.org/1999/xlink"><g id="tight-bounds" transform="matrix(1,0,0,1,0.2400000000000091,-0.21494545661269626)"><svg viewBox="0 0 395.52 124.42987859679832" height="124.42987859679832" width="395.52"><g><svg viewBox="0 0 525.9990796508475 165.47836170859276" height="124.42987859679832" width="395.52"><g transform="matrix(1,0,0,1,0,22.870019599378594)"><svg viewBox="0 0 395.52 119.73832250983557" height="119.73832250983557" width="395.52"><g id="textblocktransform"><svg viewBox="0 0 395.52 119.73832250983557" height="119.73832250983557" width="395.52" id="textblock"><g><svg viewBox="0 0 395.52 76.75422317764315" height="76.75422317764315" width="395.52"><g transform="matrix(1,0,0,1,0,0)"><svg width="395.52" viewBox="0.5 -44.95000076293945 254.92999267578125 49.650001525878906" height="76.75422317764315" data-palette-color="#31c48d"><g class="wordmark-text-0" data-fill-palette-color="primary" id="text-0"><path d="M4.05 1L0.5 1 0.5-4.2Q2.1-4.2 3.15-4.4 4.2-4.6 4.78-5.13 5.35-5.65 5.6-6.68 5.85-7.7 5.85-9.3L5.85-9.3 5.85-40.5 13.2-40.5 13.2-9Q13.2-5.6 12.4-3.38 11.6-1.15 9.63-0.08 7.65 1 4.05 1L4.05 1ZM30.45 0.55L30.45 0.55Q25.95 0.55 23.45-1.1 20.95-2.75 20-5.8 19.05-8.85 19.05-13.1L19.05-13.1 19.05-40.5 26.25-40.5 26.25-12.25Q26.25-10.35 26.5-8.68 26.75-7 27.67-5.98 28.6-4.95 30.45-4.95L30.45-4.95Q32.4-4.95 33.27-5.98 34.15-7 34.42-8.68 34.7-10.35 34.7-12.25L34.7-12.25 34.7-40.5 41.85-40.5 41.85-13.1Q41.85-8.85 40.9-5.8 39.95-2.75 37.47-1.1 35 0.55 30.45 0.55ZM64.84 0L47.64 0 47.64-40.5 55.05-40.5 55.05-5.1 64.84-5.1 64.84 0ZM76.19 0L68.89 0 68.89-40.5 76.19-40.5 76.19 0ZM87.34 0L80.39 0 88.49-40.5 96.39-40.5 104.49 0 97.64 0 96.04-9.35 88.99-9.35 87.34 0ZM92.49-31.05L89.74-14.05 95.24-14.05 92.49-31.05ZM110.04-26.75L106.64-26.75 106.64-40.5 112.39-40.5 110.04-26.75ZM127.04 4.7L124.89 4.7 124.89 0.5Q119.74 0.3 117.21-2.85 114.69-6 114.44-11.8L114.44-11.8 120.84-13.05Q120.94-10.7 121.39-8.9 121.84-7.1 122.81-6.13 123.79-5.15 125.39-5.15L125.39-5.15Q127.19-5.15 127.96-6.23 128.74-7.3 128.74-8.95L128.74-8.95Q128.74-11.6 127.51-13.3 126.29-15 124.34-16.7L124.34-16.7 119.19-21.2Q117.79-22.45 116.74-23.83 115.69-25.2 115.09-26.93 114.49-28.65 114.49-30.95L114.49-30.95Q114.49-35.5 117.09-38.08 119.69-40.65 124.09-40.9L124.09-40.9 124.09-44.95 126.24-44.95 126.24-40.95Q128.79-40.8 130.44-39.83 132.09-38.85 133.06-37.33 134.04-35.8 134.51-33.9 134.99-32 135.09-29.95L135.09-29.95 128.79-28.85Q128.69-30.75 128.39-32.27 128.09-33.8 127.26-34.68 126.44-35.55 124.84-35.45L124.84-35.45Q123.14-35.4 122.26-34.35 121.39-33.3 121.39-31.7L121.39-31.7Q121.39-29.55 122.34-28.23 123.29-26.9 124.69-25.6L124.69-25.6 129.79-21.15Q131.39-19.7 132.76-18 134.14-16.3 134.96-14.2 135.79-12.1 135.79-9.4L135.79-9.4Q135.79-6.7 134.71-4.58 133.64-2.45 131.69-1.15 129.74 0.15 127.04 0.45L127.04 0.45 127.04 4.7Z" fill="#000000" data-fill-palette-color="primary"></path><path d="M162.64 0L150.99 0 150.99-40.5 160.94-40.5Q163.64-40.5 165.81-40 167.99-39.5 169.56-38.33 171.14-37.15 171.99-35.15 172.84-33.15 172.84-30.1L172.84-30.1Q172.84-27.65 172.16-25.9 171.49-24.15 170.19-23.13 168.89-22.1 166.94-21.75L166.94-21.75Q169.34-21.35 170.91-20.08 172.49-18.8 173.26-16.75 174.04-14.7 174.04-11.8L174.04-11.8Q174.04-8.9 173.31-6.68 172.59-4.45 171.16-2.98 169.74-1.5 167.61-0.75 165.49 0 162.64 0L162.64 0ZM158.39-18.85L158.39-5.2 161.19-5.2Q164.54-5.2 165.74-6.83 166.94-8.45 166.94-11.85L166.94-11.85Q166.94-14.3 166.36-15.83 165.79-17.35 164.46-18.1 163.14-18.85 160.94-18.85L160.94-18.85 158.39-18.85ZM158.39-35.35L158.39-23.95 160.89-23.95Q163.09-23.95 164.29-24.6 165.49-25.25 165.96-26.6 166.44-27.95 166.44-30L166.44-30Q166.44-32.15 165.71-33.33 164.99-34.5 163.54-34.93 162.09-35.35 159.84-35.35L159.84-35.35 158.39-35.35ZM183.74 0L176.79 0 184.89-40.5 192.79-40.5 200.88 0 194.04 0 192.44-9.35 185.39-9.35 183.74 0ZM188.89-31.05L186.14-14.05 191.64-14.05 188.89-31.05ZM211.23 0L204.93 0 204.93-40.5 210.08-40.5 219.93-17.4 219.93-40.5 226.03-40.5 226.03 0 221.13 0 211.23-24.2 211.23 0ZM239.58 0L232.18 0 232.18-40.5 239.58-40.5 239.58-22.7 247.58-40.5 254.63-40.5 246.88-22.4 255.43 0 248.08 0 241.28-18.45 239.58-15.35 239.58 0Z" fill="#000000" data-fill-palette-color="secondary"></path></g></svg></g></svg></g><g transform="matrix(1,0,0,1,163.310208,94.87405316852843)"><svg viewBox="0 0 232.209792 24.864269341307136" height="24.864269341307136" width="232.209792"><g transform="matrix(1,0,0,1,0,0)"><svg width="232.209792" viewBox="4.300000190734863 -37 351.1200256347656 37.599998474121094" height="24.864269341307136" data-palette-color="#ffffff"><path d="M24.15 0L4.3 0 4.3-34.9 9.95-34.9 9.95-5 24.15-5 24.15 0ZM39.25 0.6L39.25 0.6Q36.45 0.6 34.25-0.35 32.05-1.3 30.5-3.08 28.95-4.85 28.12-7.38 27.3-9.9 27.3-13L27.3-13Q27.3-16.1 28.12-18.63 28.95-21.15 30.5-22.93 32.05-24.7 34.25-25.65 36.45-26.6 39.25-26.6L39.25-26.6Q42.1-26.6 44.27-25.6 46.45-24.6 47.9-22.83 49.35-21.05 50.07-18.7 50.8-16.35 50.8-13.65L50.8-13.65 50.8-11.6 32.95-11.6 32.95-10.75Q32.95-7.75 34.72-5.83 36.5-3.9 39.8-3.9L39.8-3.9Q42.2-3.9 43.85-4.95 45.5-6 46.65-7.8L46.65-7.8 49.85-4.65Q48.4-2.25 45.65-0.83 42.9 0.6 39.25 0.6ZM39.25-22.35L39.25-22.35Q37.85-22.35 36.67-21.85 35.5-21.35 34.67-20.45 33.85-19.55 33.4-18.3 32.95-17.05 32.95-15.55L32.95-15.55 32.95-15.2 45.05-15.2 45.05-15.7Q45.05-18.7 43.5-20.53 41.95-22.35 39.25-22.35ZM68.45 0L62.05 0 53.2-26 58.6-26 62.55-14.15 65.2-5.05 65.5-5.05 68.15-14.15 72.2-26 77.4-26 68.45 0ZM91.79 0.6L91.79 0.6Q88.99 0.6 86.79-0.35 84.59-1.3 83.04-3.08 81.49-4.85 80.67-7.38 79.84-9.9 79.84-13L79.84-13Q79.84-16.1 80.67-18.63 81.49-21.15 83.04-22.93 84.59-24.7 86.79-25.65 88.99-26.6 91.79-26.6L91.79-26.6Q94.64-26.6 96.82-25.6 98.99-24.6 100.44-22.83 101.89-21.05 102.62-18.7 103.34-16.35 103.34-13.65L103.34-13.65 103.34-11.6 85.49-11.6 85.49-10.75Q85.49-7.75 87.27-5.83 89.04-3.9 92.34-3.9L92.34-3.9Q94.74-3.9 96.39-4.95 98.04-6 99.19-7.8L99.19-7.8 102.39-4.65Q100.94-2.25 98.19-0.83 95.44 0.6 91.79 0.6ZM91.79-22.35L91.79-22.35Q90.39-22.35 89.22-21.85 88.04-21.35 87.22-20.45 86.39-19.55 85.94-18.3 85.49-17.05 85.49-15.55L85.49-15.55 85.49-15.2 97.59-15.2 97.59-15.7Q97.59-18.7 96.04-20.53 94.49-22.35 91.79-22.35ZM127.79 0L107.04 0 107.04-4.4 120.99-21.55 107.49-21.55 107.49-26 127.44-26 127.44-21.8 113.29-4.45 127.79-4.45 127.79 0ZM155.59 0L152.54 0Q150.39 0 149.24-1.23 148.09-2.45 147.84-4.35L147.84-4.35 147.59-4.35Q146.84-1.9 144.84-0.65 142.84 0.6 139.99 0.6L139.99 0.6Q135.94 0.6 133.76-1.5 131.59-3.6 131.59-7.15L131.59-7.15Q131.59-11.05 134.41-13 137.24-14.95 142.69-14.95L142.69-14.95 147.39-14.95 147.39-17.15Q147.39-19.55 146.09-20.85 144.79-22.15 142.04-22.15L142.04-22.15Q139.74-22.15 138.29-21.15 136.84-20.15 135.84-18.6L135.84-18.6 132.59-21.55Q133.89-23.75 136.24-25.18 138.59-26.6 142.39-26.6L142.39-26.6Q147.44-26.6 150.14-24.25 152.84-21.9 152.84-17.5L152.84-17.5 152.84-4.45 155.59-4.45 155.59 0ZM141.54-3.55L141.54-3.55Q144.09-3.55 145.74-4.67 147.39-5.8 147.39-7.7L147.39-7.7 147.39-11.45 142.79-11.45Q137.14-11.45 137.14-7.95L137.14-7.95 137.14-7.05Q137.14-5.3 138.31-4.42 139.49-3.55 141.54-3.55ZM182.93 0.6L182.93 0.6Q180.13 0.6 177.93-0.35 175.73-1.3 174.18-3.08 172.63-4.85 171.81-7.38 170.98-9.9 170.98-13L170.98-13Q170.98-16.1 171.81-18.63 172.63-21.15 174.18-22.93 175.73-24.7 177.93-25.65 180.13-26.6 182.93-26.6L182.93-26.6Q185.78-26.6 187.96-25.6 190.13-24.6 191.58-22.83 193.03-21.05 193.76-18.7 194.48-16.35 194.48-13.65L194.48-13.65 194.48-11.6 176.63-11.6 176.63-10.75Q176.63-7.75 178.41-5.83 180.18-3.9 183.48-3.9L183.48-3.9Q185.88-3.9 187.53-4.95 189.18-6 190.33-7.8L190.33-7.8 193.53-4.65Q192.08-2.25 189.33-0.83 186.58 0.6 182.93 0.6ZM182.93-22.35L182.93-22.35Q181.53-22.35 180.36-21.85 179.18-21.35 178.36-20.45 177.53-19.55 177.08-18.3 176.63-17.05 176.63-15.55L176.63-15.55 176.63-15.2 188.73-15.2 188.73-15.7Q188.73-18.7 187.18-20.53 185.63-22.35 182.93-22.35ZM205.98 0L200.53 0 200.53-26 205.98-26 205.98-21.7 206.23-21.7Q206.63-22.7 207.21-23.6 207.78-24.5 208.61-25.18 209.43-25.85 210.56-26.23 211.68-26.6 213.18-26.6L213.18-26.6Q215.83-26.6 217.88-25.3 219.93-24 220.88-21.3L220.88-21.3 221.03-21.3Q221.73-23.5 223.73-25.05 225.73-26.6 228.88-26.6L228.88-26.6Q232.78-26.6 234.93-23.98 237.08-21.35 237.08-16.5L237.08-16.5 237.08 0 231.63 0 231.63-15.85Q231.63-18.85 230.48-20.38 229.33-21.9 226.83-21.9L226.83-21.9Q225.78-21.9 224.83-21.63 223.88-21.35 223.16-20.8 222.43-20.25 221.98-19.4 221.53-18.55 221.53-17.45L221.53-17.45 221.53 0 216.08 0 216.08-15.85Q216.08-21.9 211.33-21.9L211.33-21.9Q210.33-21.9 209.36-21.63 208.38-21.35 207.63-20.8 206.88-20.25 206.43-19.4 205.98-18.55 205.98-17.45L205.98-17.45 205.98 0ZM268.38 0L263.63 0Q260.78 0 259.33-1.48 257.88-2.95 257.88-5.65L257.88-5.65 257.88-21.55 253.83-21.55 253.83-26 256.03-26Q257.38-26 257.9-26.6 258.43-27.2 258.43-28.55L258.43-28.55 258.43-33.1 263.33-33.1 263.33-26 268.78-26 268.78-21.55 263.33-21.55 263.33-4.45 268.38-4.45 268.38 0ZM290.42 0L290.42-4.3 290.22-4.3Q289.87-3.35 289.3-2.45 288.72-1.55 287.85-0.88 286.97-0.2 285.75 0.2 284.52 0.6 282.92 0.6L282.92 0.6Q278.87 0.6 276.65-2 274.42-4.6 274.42-9.45L274.42-9.45 274.42-26 279.87-26 279.87-10.15Q279.87-4.1 284.87-4.1L284.87-4.1Q285.92-4.1 286.92-4.38 287.92-4.65 288.7-5.2 289.47-5.75 289.95-6.6 290.42-7.45 290.42-8.6L290.42-8.6 290.42-26 295.87-26 295.87 0 290.42 0ZM320.02 0L320.02-4.3 319.77-4.3Q318.92-2 317-0.7 315.07 0.6 312.47 0.6L312.47 0.6Q307.52 0.6 304.82-2.98 302.12-6.55 302.12-13L302.12-13Q302.12-19.45 304.82-23.03 307.52-26.6 312.47-26.6L312.47-26.6Q315.07-26.6 317-25.33 318.92-24.05 319.77-21.7L319.77-21.7 320.02-21.7 320.02-37 325.47-37 325.47 0 320.02 0ZM314.12-4.1L314.12-4.1Q316.62-4.1 318.32-5.33 320.02-6.55 320.02-8.55L320.02-8.55 320.02-17.45Q320.02-19.45 318.32-20.68 316.62-21.9 314.12-21.9L314.12-21.9Q311.27-21.9 309.57-20.08 307.87-18.25 307.87-15.25L307.87-15.25 307.87-10.75Q307.87-7.75 309.57-5.93 311.27-4.1 314.12-4.1ZM343.47 0.6L343.47 0.6Q340.77 0.6 338.54-0.35 336.32-1.3 334.77-3.08 333.22-4.85 332.37-7.38 331.52-9.9 331.52-13L331.52-13Q331.52-16.1 332.37-18.63 333.22-21.15 334.77-22.93 336.32-24.7 338.54-25.65 340.77-26.6 343.47-26.6L343.47-26.6Q346.17-26.6 348.39-25.65 350.62-24.7 352.17-22.93 353.72-21.15 354.57-18.63 355.42-16.1 355.42-13L355.42-13Q355.42-9.9 354.57-7.38 353.72-4.85 352.17-3.08 350.62-1.3 348.39-0.35 346.17 0.6 343.47 0.6ZM343.47-3.9L343.47-3.9Q346.27-3.9 347.97-5.63 349.67-7.35 349.67-10.8L349.67-10.8 349.67-15.2Q349.67-18.65 347.97-20.38 346.27-22.1 343.47-22.1L343.47-22.1Q340.67-22.1 338.97-20.38 337.27-18.65 337.27-15.2L337.27-15.2 337.27-10.8Q337.27-7.35 338.97-5.63 340.67-3.9 343.47-3.9Z" opacity="1" transform="matrix(1,0,0,1,0,0)" fill="#000000" class="slogan-text-1" data-fill-palette-color="secondary" id="text-1"></path></svg></g></svg></g></svg></g></svg></g><g transform="matrix(1,0,0,1,413.6398299908853,0)"><svg viewBox="0 0 112.3592496599623 165.47836170859276" height="165.47836170859276" width="112.3592496599623"><g><svg xmlns="http://www.w3.org/2000/svg" xmlns:xlink="http://www.w3.org/1999/xlink" version="1.1" x="0" y="0" viewBox="16.224000930786133 0 67.8270034790039 99.89299011230469" enable-background="new 0 0 100 100" xml:space="preserve" height="165.47836170859276" width="112.3592496599623" class="icon-icon-0" data-fill-palette-color="accent" id="icon-0"><g fill="#096a2e" data-fill-palette-color="accent"><path d="M55.076 41.137c-0.353-0.075-0.622-0.151-0.959-0.226V28.788c5.604 0.904 11.528 3.359 17.053 7.246l10.771-15.209c-7.531-6.043-16.577-9.502-27.824-10.184V0h-5.421v10.545c-17.882 0.476-28.812 10.728-28.812 24.818v0.226c0 15.819 12.516 20.545 28.812 24.305v12.77c-7.262-0.928-14.178-3.966-20.483-8.986L16.224 77.993c8.629 7.726 20.17 11.969 32.472 12.715v9.185h5.421v-9.074c18.032-0.483 29.934-9.811 29.934-25.254v-0.229C84.051 50.798 72.95 45.024 55.076 41.137zM41.645 33.594v-0.23c0-2.633 2.34-4.751 7.051-4.949v11.088C43.215 37.838 41.645 36.295 41.645 33.594zM62.294 67.666c0 3.189-2.875 5.132-8.177 5.299V61.289c6.389 1.856 8.177 3.53 8.177 6.155V67.666z" fill="#000000" data-fill-palette-color="accent"></path></g></svg></g></svg></g></svg></g><defs></defs></svg><rect width="395.52" height="124.42987859679832" fill="none" stroke="none" visibility="hidden"></rect></g></svg></g></svg>